# File created by Blade
# Date/Time:  Wed Jan 21 15:15:22 2015
# Frame Rate: 120.000 fps
#------------------------------------------------------
:FULLY-SPECIFIED
:DEGREES
268
root 17.366144 35.824410 -22.201176 149.628246 -87.626397 -143.215943
Spine -8.938654 -2.325480 -2.849778
Head 7.128331 -0.560214 8.541208
LeftShoulder -7.839872 -23.516392 0.155878
LeftArm -18.413325 5.926667 -68.665634
LeftForeArm -0.429378 -0.000000 9.107722
LeftHand -1.222834 -0.000000 -0.123076
LeftHandThumb1 -26.253704 0.000000 33.147579
RightShoulder -9.002958 -13.353302 11.366469
RightArm 7.366567 3.165859 69.176808
RightForeArm -26.380265 -0.000000 18.358846
RightHand -2.204966 -0.000000 5.178955
RightHandThumb1 -24.326973 -0.000000 -32.862282
LeftUpLeg -2.878949 8.377088 -7.700631
LeftLeg -0.013565 -0.000000 0.000000
LeftFoot -19.912096 17.817533 -11.401802
LeftToeBase 29.171364 -0.000000 -0.000000
RightUpLeg -9.089785 -10.331516 0.713423
RightLeg 26.578878 -0.000000 -0.000000
RightFoot -33.522549 -23.360841 24.030978
RightToeBase 12.897504 -0.000000 -0.000000
269
root 17.382553 35.837722 -22.207320 149.397256 -87.677077 -142.969367
Spine -8.773867 -2.429856 -3.133570
Head 7.334555 -0.594240 8.853299
LeftShoulder -7.808650 -23.557121 0.287364
LeftArm -18.394460 5.936909 -68.610279
LeftForeArm -0.472585 -0.000000 9.033969
LeftHand -1.102152 -0.000000 -0.097763
LeftHandThumb1 -26.253704 0.000000 33.147579
RightShoulder -9.038039 -13.288213 11.496510
RightArm 7.446116 3.331774 69.279035
RightForeArm -26.620765 -0.000000 18.580104
RightHand -2.189934 0.000000 5.314039
RightHandThumb1 -24.326973 -0.000000 -32.862282
LeftUpLeg -2.950029 8.553019 -7.688956
LeftLeg 0.052741 -0.000000 -0.000000
LeftFoot -19.917625 17.467684 -11.599898
LeftToeBase 29.829720 -0.000000 -0.000000
RightUpLeg -9.198145 -10.480696 0.864915
RightLeg 26.727594 -0.000000 -0.000000
RightFoot -33.564701 -23.384150 24.051340
RightToeBase 12.888602 -0.000000 -0.000000
270
root 17.399767 35.849416 -22.215032 149.267264 -87.708440 -142.832903
Spine -8.595216 -2.481451 -3.410346
Head 7.545924 -0.665456 9.155465
LeftShoulder -7.743977 -23.609900 0.404785
LeftArm -18.387425 5.860842 -68.532431
LeftForeArm -0.509058 -0.000000 8.954298
LeftHand -1.063872 0.000000 -0.125548
LeftHandThumb1 -26.253704 0.000000 33.147579
RightShoulder -9.077880 -13.286703 11.575977
RightArm 7.630901 3.586557 69.457554
RightForeArm -27.053310 -0.000000 18.659227
RightHand -2.033840 -0.000000 5.456440
RightHandThumb1 -24.326973 -0.000000 -32.862282
LeftUpLeg -2.999919 8.711015 -7.670546
LeftLeg 0.092646 -0.000000 -0.000000
LeftFoot -19.942982 17.162244 -11.806360
LeftToeBase 30.437182 -0.000000 -0.000000
RightUpLeg -9.315291 -10.636176 1.026994
RightLeg 26.874412 -0.000000 -0.000000
RightFoot -33.660523 -23.400895 24.091327
RightToeBase 13.205297 -0.000000 -0.000000
271
root 17.416924 35.860193 -22.224989 149.471676 -87.749362 -143.031770
Spine -8.406696 -2.499921 -3.737217
Head 7.749049 -0.762591 9.515962
LeftShoulder -7.649064 -23.715362 0.539789
LeftArm -18.435343 5.840625 -68.472276
LeftForeArm -0.635346 -0.000000 8.869714
LeftHand -0.962737 -0.000000 -0.188726
LeftHandThumb1 -26.253704 0.000000 33.147579
RightShoulder -9.153685 -13.199541 11.707799
RightArm 7.693278 3.622234 69.546690
RightForeArm -27.336037 -0.000000 18.868853
RightHand -2.042640 -0.000000 5.547235
RightHandThumb1 -24.326973 -0.000000 -32.862282
LeftUpLeg -3.036490 8.830263 -7.669594
LeftLeg 0.105840 -0.000000 -0.000000
LeftFoot -19.973250 16.908558 -12.069615
LeftToeBase 31.022444 -0.000000 -0.000000
RightUpLeg -9.408961 -10.741603 1.182719
RightLeg 26.959645 -0.000000 -0.000000
RightFoot -33.757147 -23.321633 24.123923
RightToeBase 13.039722 -0.000000 -0.000000
272
root 17.436315 35.868482 -22.236643 149.276338 -87.772812 -142.833208
Spine -8.217358 -2.521586 -4.023999
Head 8.004411 -0.870538 9.838261
LeftShoulder -7.582545 -23.758930 0.656034
LeftArm -18.454403 5.817214 -68.410111
LeftForeArm -0.705199 -0.000000 8.869006
LeftHand -1.087565 -0.000000 -0.230439
LeftHandThumb1 -26.253704 0.000000 33.147579
RightShoulder -9.178788 -13.067513 11.800992
RightArm 7.620777 3.373375 69.576839
RightForeArm -27.272156 0.000000 19.240427
RightHand -2.185777 -0.000000 5.510145
RightHandThumb1 -24.326973 -0.000000 -32.862282
LeftUpLeg -3.067313 8.914927 -7.645712
LeftLeg 0.106178 -0.000000 -0.000000
LeftFoot -19.983866 16.756813 -12.164824
LeftToeBase 31.525215 -0.000000 -0.000000
RightUpLeg -9.510995 -10.804792 1.366083
RightLeg 27.029386 -0.000000 -0.000000
RightFoot -33.819057 -23.275270 24.044414
RightToeBase 13.272037 -0.000000 -0.000000
273
root 17.456133 35.877431 -22.252610 149.647069 -87.780164 -143.209556
Spine -8.010060 -2.528177 -4.376784
Head 8.256798 -0.991681 10.229820
LeftShoulder -7.521672 -23.797826 0.840998
LeftArm -18.473907 5.719170 -68.372321
LeftForeArm -0.743278 -0.000000 8.832630
LeftHand -0.986314 -0.000000 -0.172842
LeftHandThumb1 -26.253704 0.000000 33.147579
RightShoulder -9.169912 -13.026766 11.956092
RightArm 7.643149 3.264564 69.599841
RightForeArm -27.357414 -0.000000 19.551666
RightHand -2.261522 -0.000000 5.478451
RightHandThumb1 -24.326973 -0.000000 -32.862282
LeftUpLeg -3.082620 9.044836 -7.618492
LeftLeg 0.103261 -0.000000 -0.000000
LeftFoot -19.970939 16.506291 -12.320244
LeftToeBase 31.921600 -0.000000 -0.000000
RightUpLeg -9.599076 -10.808798 1.549911
RightLeg 27.065263 -0.000000 -0.000000
RightFoot -33.872559 -23.105924 24.066649
RightToeBase 13.175224 -0.000000 -0.000000
274
root 17.479007 35.884205 -22.268730 150.112920 -87.771945 -143.682631
Spine -7.790164 -2.527401 -4.693138
Head 8.516907 -1.054798 10.579592
LeftShoulder -7.482992 -23.866102 0.983292
LeftArm -18.522380 5.686946 -68.316497
LeftForeArm -0.805037 -0.000000 8.816717
LeftHand -0.979853 0.000000 -0.202436
LeftHandThumb1 -26.253704 0.000000 33.147579
RightShoulder -9.200517 -12.990213 12.084684
RightArm 7.765833 3.200134 69.619702
RightForeArm -27.600592 0.000000 19.789853
RightHand -2.337804 -0.000000 5.716948
RightHandThumb1 -24.326973 -0.000000 -32.862282
LeftUpLeg -3.095080 9.182357 -7.596394
LeftLeg 0.074056 -0.000000 -0.000000
LeftFoot -19.986506 16.330317 -12.483585
LeftToeBase 32.375048 -0.000000 -0.000000
RightUpLeg -9.683548 -10.763193 1.737172
RightLeg 27.053169 -0.000000 -0.000000
RightFoot -33.905965 -23.070588 23.869782
RightToeBase 13.454779 -0.000000 -0.000000
275
root 17.501456 35.889373 -22.287230 150.334383 -87.775031 -143.912712
Spine -7.581183 -2.466587 -5.031324
Head 8.828533 -1.224439 10.891964
LeftShoulder -7.331966 -23.881815 1.096440
LeftArm -18.565343 5.570493 -68.244871
LeftForeArm -0.859291 -0.000000 8.847645
LeftHand -0.858331 -0.000000 -0.161197
LeftHandThumb1 -26.253704 0.000000 33.147579
RightShoulder -9.220549 -12.948906 12.208468
RightArm 7.817229 3.206751 69.672219
RightForeArm -27.947709 -0.000000 20.054280
RightHand -2.415109 -0.000000 5.893384
RightHandThumb1 -24.326973 -0.000000 -32.862282
LeftUpLeg -3.098678 9.300005 -7.571354
LeftLeg 0.032044 -0.000000 -0.000000
LeftFoot -20.001350 16.178552 -12.620951
LeftToeBase 32.775577 -0.000000 -0.000000
RightUpLeg -9.769804 -10.719064 1.926817
RightLeg 27.052786 -0.000000 -0.000000
RightFoot -33.959769 -22.868039 23.772800
RightToeBase 13.629867 -0.000000 -0.000000
276
root 17.524932 35.894257 -22.308494 150.967603 -87.730572 -144.556776
Spine -7.359793 -2.404283 -5.344794
Head 9.113564 -1.284556 11.216269
LeftShoulder -7.280575 -23.909580 1.228302
LeftArm -18.576385 5.599567 -68.201394
LeftForeArm -0.866851 0.000000 8.799461
LeftHand -0.954687 0.000000 -0.286666
LeftHandThumb1 -26.253704 0.000000 33.147579
RightShoulder -9.215747 -12.883800 12.320121
RightArm 7.856297 3.137492 69.680394
RightForeArm -28.227866 0.000000 20.339449
RightHand -2.501695 -0.000000 6.084789
RightHandThumb1 -24.326973 -0.000000 -32.862282
LeftUpLeg -3.104728 9.474337 -7.534970
LeftLeg -0.009144 -0.000000 0.000000
LeftFoot -20.038364 16.039740 -12.742022
LeftToeBase 33.203435 -0.000000 -0.000000
RightUpLeg -9.848813 -10.607708 2.136315
RightLeg 26.978333 -0.000000 -0.000000
RightFoot -34.039580 -22.726254 23.743330
RightToeBase 13.942714 -0.000000 -0.000000
277
root 17.550591 35.898874 -22.329613 151.410518 -87.689131 -145.003534
Spine -7.141735 -2.363935 -5.650304
Head 9.414606 -1.333725 11.535453
LeftShoulder -7.246422 -23.906953 1.335566
LeftArm -18.584607 5.672014 -68.137417
LeftForeArm -0.855715 0.000000 8.807074
LeftHand -0.895594 0.000000 -0.352545
LeftHandThumb1 -26.253704 0.000000 33.147579
RightShoulder -9.192356 -12.912417 12.450740
RightArm 7.995178 3.069624 69.679530
RightForeArm -28.716909 -0.000000 20.546630
RightHand -2.471801 -0.000000 5.951840
RightHandThumb1 -24.326973 -0.000000 -32.862282
LeftUpLeg -3.098363 9.665121 -7.502159
LeftLeg -0.103617 -0.000000 0.000000
LeftFoot -20.041922 15.908391 -12.847425
LeftToeBase 33.646926 -0.000000 -0.000000
RightUpLeg -9.924842 -10.442433 2.345856
RightLeg 26.869011 -0.000000 -0.000000
RightFoot -34.048223 -22.559719 23.766890
RightToeBase 13.660830 -0.000000 -0.000000
